<?xml version="1.0" encoding="UTF-8"?>
<svg width="24px" height="24px" fill="context-fill" version="1.1" viewBox="0 -960 960 960" xmlns="http://www.w3.org/2000/svg">
 <path d="m433.11-902h468.89v468.89h-93.778v-309.47l-309.47 309.47-65.645-65.645 309.47-309.47h-309.47zm468.89 656.45h-93.778v-93.778h93.778zm-750.23 93.778v93.778q-38.683 0-66.231-27.547-27.547-27.547-27.547-66.231zm0-93.778h-93.778v-93.778h93.778zm0-187.56h-93.778v-93.778h93.778zm0-187.56h-93.778v-93.778h93.778zm0-187.56h-93.778q0-38.683 27.547-66.231 27.547-27.547 66.231-27.547zm656.45 656.45h93.778q0 38.683-27.547 66.231-27.547 27.547-66.231 27.547zm-93.778 93.778h-93.778v-93.778h93.778zm-187.56 0h-93.778v-93.778h93.778zm-187.56 0h-93.778v-93.778h93.778zm0-750.23h-93.778v-93.778h93.778z" stroke-width="1.1722"/>
</svg>
